<mxfile host="app.diagrams.net" modified="2022-03-13T11:54:43.858Z" agent="5.0 (Macintosh; Intel Mac OS X 10_15_7) AppleWebKit/537.36 (KHTML, like Gecko) Chrome/99.0.4844.51 Safari/537.36" etag="cUZPLRVY26KwQXtmw60U" version="16.6.4" type="github">
  <diagram id="csqCPKY8oeQTIlyTz5jA" name="第 1 页">
    <mxGraphModel dx="1186" dy="614" grid="1" gridSize="10" guides="1" tooltips="1" connect="1" arrows="1" fold="1" page="1" pageScale="1" pageWidth="827" pageHeight="1169" math="0" shadow="0">
      <root>
        <mxCell id="0" />
        <mxCell id="1" parent="0" />
        <mxCell id="VVFWrmJOWKgnm423K9Aq-57" value="" style="edgeStyle=orthogonalEdgeStyle;rounded=0;orthogonalLoop=1;jettySize=auto;html=1;" edge="1" parent="1">
          <mxGeometry relative="1" as="geometry">
            <mxPoint x="169.5" y="140" as="sourcePoint" />
            <mxPoint x="299.5" y="140" as="targetPoint" />
          </mxGeometry>
        </mxCell>
        <mxCell id="VVFWrmJOWKgnm423K9Aq-55" value="web首页" style="shape=umlLifeline;perimeter=lifelinePerimeter;whiteSpace=wrap;html=1;container=1;collapsible=0;recursiveResize=0;outlineConnect=0;" vertex="1" parent="1">
          <mxGeometry x="120" y="70" width="100" height="300" as="geometry" />
        </mxCell>
        <mxCell id="VVFWrmJOWKgnm423K9Aq-56" value="应用服务" style="shape=umlLifeline;perimeter=lifelinePerimeter;whiteSpace=wrap;html=1;container=1;collapsible=0;recursiveResize=0;outlineConnect=0;" vertex="1" parent="1">
          <mxGeometry x="250" y="70" width="100" height="300" as="geometry" />
        </mxCell>
        <mxCell id="VVFWrmJOWKgnm423K9Aq-71" value="" style="html=1;points=[];perimeter=orthogonalPerimeter;" vertex="1" parent="VVFWrmJOWKgnm423K9Aq-56">
          <mxGeometry x="40" y="140" width="10" height="40" as="geometry" />
        </mxCell>
        <mxCell id="VVFWrmJOWKgnm423K9Aq-72" value="是否存在" style="edgeStyle=orthogonalEdgeStyle;html=1;align=left;spacingLeft=2;endArrow=block;rounded=0;entryX=1;entryY=0;" edge="1" target="VVFWrmJOWKgnm423K9Aq-71" parent="VVFWrmJOWKgnm423K9Aq-56">
          <mxGeometry relative="1" as="geometry">
            <mxPoint x="45" y="120" as="sourcePoint" />
            <Array as="points">
              <mxPoint x="75" y="120" />
            </Array>
          </mxGeometry>
        </mxCell>
        <mxCell id="VVFWrmJOWKgnm423K9Aq-65" value="" style="edgeStyle=orthogonalEdgeStyle;rounded=0;orthogonalLoop=1;jettySize=auto;html=1;" edge="1" parent="1">
          <mxGeometry relative="1" as="geometry">
            <mxPoint x="299.5" y="265" as="sourcePoint" />
            <mxPoint x="549.5" y="265" as="targetPoint" />
          </mxGeometry>
        </mxCell>
        <mxCell id="VVFWrmJOWKgnm423K9Aq-77" value="获取收藏商品详情" style="edgeLabel;html=1;align=center;verticalAlign=middle;resizable=0;points=[];" vertex="1" connectable="0" parent="VVFWrmJOWKgnm423K9Aq-65">
          <mxGeometry x="-0.26" y="5" relative="1" as="geometry">
            <mxPoint y="1" as="offset" />
          </mxGeometry>
        </mxCell>
        <mxCell id="VVFWrmJOWKgnm423K9Aq-60" value="用户服务" style="shape=umlLifeline;perimeter=lifelinePerimeter;whiteSpace=wrap;html=1;container=1;collapsible=0;recursiveResize=0;outlineConnect=0;" vertex="1" parent="1">
          <mxGeometry x="380" y="70" width="100" height="300" as="geometry" />
        </mxCell>
        <mxCell id="VVFWrmJOWKgnm423K9Aq-66" value="" style="edgeStyle=orthogonalEdgeStyle;rounded=0;orthogonalLoop=1;jettySize=auto;html=1;" edge="1" parent="VVFWrmJOWKgnm423K9Aq-60">
          <mxGeometry relative="1" as="geometry">
            <mxPoint x="169.5" y="205" as="sourcePoint" />
            <mxPoint x="-80.5" y="205" as="targetPoint" />
            <Array as="points">
              <mxPoint x="-10" y="205" />
              <mxPoint x="-10" y="205" />
            </Array>
          </mxGeometry>
        </mxCell>
        <mxCell id="VVFWrmJOWKgnm423K9Aq-62" value="" style="edgeStyle=orthogonalEdgeStyle;rounded=0;orthogonalLoop=1;jettySize=auto;html=1;" edge="1" parent="1">
          <mxGeometry relative="1" as="geometry">
            <mxPoint x="430" y="171" as="sourcePoint" />
            <mxPoint x="300.5" y="171" as="targetPoint" />
            <Array as="points">
              <mxPoint x="380.5" y="171" />
              <mxPoint x="380.5" y="171" />
            </Array>
          </mxGeometry>
        </mxCell>
        <mxCell id="VVFWrmJOWKgnm423K9Aq-61" value="" style="edgeStyle=orthogonalEdgeStyle;rounded=0;orthogonalLoop=1;jettySize=auto;html=1;" edge="1" parent="1">
          <mxGeometry relative="1" as="geometry">
            <mxPoint x="300" y="161" as="sourcePoint" />
            <mxPoint x="430" y="161" as="targetPoint" />
          </mxGeometry>
        </mxCell>
        <mxCell id="VVFWrmJOWKgnm423K9Aq-76" value="获取用户收藏" style="edgeLabel;html=1;align=center;verticalAlign=middle;resizable=0;points=[];" vertex="1" connectable="0" parent="VVFWrmJOWKgnm423K9Aq-61">
          <mxGeometry x="-0.1077" relative="1" as="geometry">
            <mxPoint y="1" as="offset" />
          </mxGeometry>
        </mxCell>
        <mxCell id="VVFWrmJOWKgnm423K9Aq-64" value="商品服务" style="shape=umlLifeline;perimeter=lifelinePerimeter;whiteSpace=wrap;html=1;container=1;collapsible=0;recursiveResize=0;outlineConnect=0;" vertex="1" parent="1">
          <mxGeometry x="500" y="70" width="100" height="300" as="geometry" />
        </mxCell>
        <mxCell id="VVFWrmJOWKgnm423K9Aq-74" value="" style="edgeStyle=orthogonalEdgeStyle;rounded=0;orthogonalLoop=1;jettySize=auto;html=1;" edge="1" parent="VVFWrmJOWKgnm423K9Aq-64" target="VVFWrmJOWKgnm423K9Aq-56">
          <mxGeometry relative="1" as="geometry">
            <mxPoint x="170" y="260" as="sourcePoint" />
            <mxPoint x="-80" y="260" as="targetPoint" />
            <Array as="points">
              <mxPoint x="-100" y="260" />
              <mxPoint x="-100" y="260" />
            </Array>
          </mxGeometry>
        </mxCell>
        <mxCell id="VVFWrmJOWKgnm423K9Aq-67" value="大数据&lt;br&gt;推荐服务" style="shape=umlLifeline;perimeter=lifelinePerimeter;whiteSpace=wrap;html=1;container=1;collapsible=0;recursiveResize=0;outlineConnect=0;" vertex="1" parent="1">
          <mxGeometry x="620" y="70" width="100" height="300" as="geometry" />
        </mxCell>
        <mxCell id="VVFWrmJOWKgnm423K9Aq-73" value="" style="edgeStyle=orthogonalEdgeStyle;rounded=0;orthogonalLoop=1;jettySize=auto;html=1;" edge="1" parent="1" target="VVFWrmJOWKgnm423K9Aq-67">
          <mxGeometry relative="1" as="geometry">
            <mxPoint x="300" y="320" as="sourcePoint" />
            <mxPoint x="550" y="320" as="targetPoint" />
            <Array as="points">
              <mxPoint x="570" y="320" />
              <mxPoint x="570" y="320" />
            </Array>
          </mxGeometry>
        </mxCell>
        <mxCell id="VVFWrmJOWKgnm423K9Aq-78" value="大数据服务推算喜欢商品详情" style="edgeLabel;html=1;align=center;verticalAlign=middle;resizable=0;points=[];" vertex="1" connectable="0" parent="VVFWrmJOWKgnm423K9Aq-73">
          <mxGeometry x="-0.1015" y="1" relative="1" as="geometry">
            <mxPoint y="1" as="offset" />
          </mxGeometry>
        </mxCell>
      </root>
    </mxGraphModel>
  </diagram>
</mxfile>
